<svg xmlns="http://www.w3.org/2000/svg" xml:space="preserve" width="299.9" height="301.4" viewBox="0 0 79.3 79.7"><path d="M306.7 48.5c-.5-.6-.6-1.3-.7-4.5 0-1.7-.1-3-.2-3l-.3.2c0 .2-2 3.9-2 3.6l1.2-2.9q2-3.7 1.2-3.9-.4.2-1.6 2.2c-1.3 2.1-1.3 2.4-1.5 4.5q-.2 3.5-.8 3c-.6-.2-.7-1.7-.9-7.7l-.1-8.6v-2.5h-17.3c-19 0-19.1 0-20.4-1.6q-1.6-2-1.1-3 .2-.6.1-1l.1-.6q.2-.3.4.5c.2 1 .8 1 .6 0q0-.8.2-.8l.5-.1 1.2-.1h.9l-.2-11.6v-11q.4 1.2 1.3-.1c.5-.6.8-.7 2.7-.8l2.1-.2.2-1a15 15 0 0 1 4.2-8.4c2.1-2.2 3.9-3.1 6.8-3.5 2.4-.3 14-.4 19.3 0h3.2l-.2-7.6c-.1-6.9-.1-7.6.3-7.3q.4.4.6 1.8.2 1.7.4.6v-1.4q-.7-1.4.7-1.4.8 0 .8-.3t-.7-.2q-1 .1-.8-.2-.5-.5 7.9-.5 6.6 0 7.7 1l.3 4.4c0 3.2 0 4.3-.3 4.6q-.4.4-.6.3-.3-.1-.4.1 0 .3.4.3c.7 0 .7.7.1 1-.5.1-4.7.3-8.4.3h-2.2l.1 2.5.2 2.5 2-.2c1.1-.2 4.6-.3 7.8-.3 3.1 0 5.8 0 5.8-.2s.9 0 1.7.2l1.7.5 1.6.7c.7.4 1.8.7 2.4.7q1 0 1 .3t-1 .1l-1-.1 2 2.1c2.8 2.7 3.7 4.3 4.8 8.7.9 3.2.9 3.4.9 8.6a195 195 0 0 1-1.3 19.3h-.4q0 .4.7.4c1.2.2.9.9-.5 1q-1 0-.8.3l-19.2.3h-3.4v9a86 86 0 0 1-.6 10.2q0 .6-.5.6c-.5 0-.5-.4-.8-3.6-.2-2-.3-5.2-.3-7v-3.5l-.7.6c-.8.8-.8.7.2-1.3l.7-2q0-.4-1 1.2c-1 2-2 3.4-2.3 3.1 0 0 .6-1.4 1.6-3q1.7-2.7 1.7-3.5 0-1.6-.9.2c-.7 1.4-3.7 5.8-4.2 6s-.3-.3 2-3.8l2-3q0-.2-.6-.2-.7-.1-2 2l-2.1 3.7-1 1.6v4.9c0 5-.2 8.2-.6 8.2zm-3-8.4 1.5-2.3q.9-1.2.9-2l-.1-1-1.6 2c-1.3 1.7-1.5 2-1.5 3.1l.1 1.3zm1.8-5.6q.6-.7.5-1.3c0-.5-.3-.4-1.6 1.3q-1.4 1.9-1.5 2.6-.2 1 1-.6zm-.8-1.4q1.4-1.8 1.4-2.5c0-1.1-.3-.9-1.7 1.5q-3 5.2.3 1m3.8 0 1.6-2.6 1-1.6-.6-.2c-.7-.1-2.5 2.7-2.7 4.4v1.2zm-4.4-1.7 1.5-2.2.6-.6h-.7q-.6 0-1.5 1.4c-.8 1.2-1.4 2.9-1 2.9zm4.5-1.9q.8-1.1-.1-.8-.7 0-.7 1 0 1.6.8-.2m-4.9 0q.6-1-.2-.9-.5 0-.5.8 0 1.4.7.2m-22.2-3.2q.6-.3 1.2-1.2l.7-1h-9.7c-9.6 0-9.8 0-9.7.5q.3 1.3 2.3 1.6c1.4.2 14.4.3 15.2 0m3-.9c.7-1 .7-1.1.3-1.2q-.5 0-1.3 1-1.4 1.5-.2 1.3.6 0 1.3-1.1m2.2.1q1.4-1.5.2-1.4-.7 0-1.4 1-1.4 1.5-.2 1.4.6 0 1.4-1m2.3-.1c1-1 1-1.1.4-1.2q-.5-.1-1.5 1-1.4 1.4-.4 1.3.6-.1 1.5-1.1m2.2 0c1-1.4 1-1.5.4-1.5-.4 0-2.5 2-2.5 2.4q0 .2.7.2t1.4-1.1m1.3 1 1.7-2.3-.4-.2c-.4 0-2.3 1.9-2.3 2.3q.1.6 1 .1m2.7-1c1-1.3 1-1.4.3-1.4q-.4 0-1.3 1.2-1 1.3-.3 1.2.4-.1 1.3-1m1.3.9.3-1q.5-1.8-.9 0l-.7 1zm7.2-2q2.5-3.3 2.4-2.5a30 30 0 0 1-3 4.2q-.4.4 1 .4c1.3 0 1.4 0 2.3-1.4q1-1.4 2-2.3 1.4-1.4.4-.2-.4.9-1.5 2.1l-1 1.5q0 .3 1.2.3c1 0 1.2 0 3-2.4q1.8-2.3 2.1-2.3.2.3-2.7 3.8l-.7.9h1.3c1.2 0 1.3-.1 2.1-1.2l2-2.3c1.3-1.5.9-.4-.8 1.6l-1.1 1.7 1.3.2c1.2 0 1.4-.1 2-1a24 24 0 0 1 3.8-4.2q.1.2-2.8 3.8-1.3 1.4 1 1.4c1 0 1-.2 2.4-2q1.4-2 2-2.5c.6-.5.5-.4-1.3 2.2-.7 1-1.2 2-1 2.1q.8.6 2-.8c1.6-2.2 3.4-4.3 3.6-4.3q.4 0-2.4 3.5l-1 1.6h1.4c1.1-.1 1.4-.3 2-1.2 1.4-1.8 3.4-4.2 3.6-4.1q.4.1-2 3.2l-1.7 2h1.5c1.3 0 1.5 0 1.9-.7 1.4-2.4 2.7-4 3-3.7 0 0-.5 1-1.3 2s-1.3 2-1.3 2.2q0 .2 1.2 0 1.2 0 1.3-.2c.3-.6 2.6-3.6 3.1-4.1l.8-.7-.4.7-1.4 2.1c-1.6 2.2-1.6 2.1-.6 2.1.8 0 1-.2 2.3-2.1q1.4-2 1.5-1.9 0 .4-1 2c-1 1.6-1 1.8-1 1.9l.9.1q.9 0 1.3-.6.5-.8.4.3 0 .8.3.9c.3 0 .4-2.6.4-11.7 0-12.5-.1-13.5-1.5-18-1-3-3.3-6.5-5.5-8-1.2-.8-.6-.8-11.4-.7-7 0-7.2 0-7.8-.5l-.5-.6h5.5a98 98 0 0 1 10.5.3c.3-.3-5.3-.6-11.6-.6h-4.6l.2 7.4.1 7.4.8.8q1.4 1.4 1.3 3.3c0 3-2.4 5.3-5.4 5.3-1 0-1.4-.2-2.3-1a5.2 5.2 0 0 1-.7-7.7c.5-.6.5-.8.3-7.5 0-3.9-.2-7-.2-7l-6.9-.3-6.9-.2 2 2.2c3.4 4 4.9 8.4 5.3 16 .3 5.6.4 18 .1 19q-.2 1.6 1-.3c.7-1 2.9-3.2 2.9-2.9l-1.9 2.5q-1.7 2.2-1.7 2.5.2.3 1.3.3c1 0 1.2-.1 2.8-2.1m-18-2.4 11 .1.2-.6c.2-.8-.2-1.3-5.2-6.3l-3.4-3.5-1.4 1.1c-.7.6-1.7 1.4-2.2 1.6-.9.4-.9.4-2.2-.5l-2.6-1.8-1.1-.8-.6.7a120 120 0 0 1-9.4 10.2h2.8zm-18.2-4.7q0-4.6-.2-3.3c-.4 1.8-.3 7.7 0 7.7q.2-.1.2-4.4m2.3 3q1.1-1.2-.5 0l-.4.2 4.7-5c4-3.8 4.8-4.7 4.4-5L269.9 4l-1.6-1.3c-.2 0 0 8.2.3 15.4q0 3 .5 2.9zm27-5.5-.2-6.7V4.3L295 5.9c-.8.8-2.4 2.3-3.5 3.1-3 2.4-2.8 2.2-1.8 2.6a26 26 0 0 1 3.8 3.2l3.1 2.8q.3-.1.1-3m1.6-6.8-.7-7.5c-.3-.3 0 5.6.3 8.6l.2 3.5c0 1.6.3 3 .5 2.8zM283.2 13l-3.6-2.6c0 .2 3.3 2.8 3.5 2.8q.3 0 0-.2m2.5-1.8 4-3.1c3.2-2.5 6.3-5 6.5-5.3l.2-1-.2-1.2a493 493 0 0 1-27 .4l1.6 1.4a302 302 0 0 1 12.9 10.3zM279 9.7l-1.3-1-1.1-1 1.2 1.2q1.6 1.5 1.2.8m29-1.3-.5-.4c-.7-.3-1.4-1.8-1.4-3.3q-.1-2.2-.7-.7-.6 2.3 1 3.8 1.5 1.2 1.5.6m4-1.3c.5-.6.6-.9.4-1.9 0-1-.3-1.4-1-2-.9-.8-1.2-1-1.9-.8q-1.8.2-1.7 3c0 1.7.2 2 1.5 2.4q1.6.5 2.6-.7m-3.3-.4-.4-1.1q-.3-1.1.2-.3l.4.9c0 .4 1 .7 1.4.4q.3 0 0 .1c-.2.5-1.3.4-1.6 0m.2-3q0-.5.3-.8c.3-.2.3.5 0 1q-.3.5-.3-.2m-32.3 4c0-.2-1.6-1.2-1.7-1l.7.6c1 .6 1 .6 1 .4m64-2-.1.8v.7zM272.7 5l-2.2-2q-2-1.6-2.2-2-.2-.6-.2 0c0 .5.2.8 2 2.1l2 1.7c.3.4.9.6.6.2m67.5-3.4c-.6-3.5-1.2-5.5-2.6-8-1.2-2-1.7-2.2-.6-.1a38 38 0 0 1 2 6.3l1 4.3c.4 1 .4-.2 0-2.5m-72.9.4q0-1-.2-1t-.3 1.2q.2 2 .5-.2m42.1-1 .7-.2v-10c0-5.6.2-10.4.3-10.8l.2-.7 3.5-.2c1.9 0 4.2-.2 5.1-.1h1.8l-.1-3.8c0-2-.1-3.7-.2-3.7h-6.3l-6.3.1v14.8c0 11.7 0 14.8.4 14.8zM284.7-.3h-.5q-.3.2.2.2t.3-.2m10.7-1.5q0-.6-.3-.8t-.2.2l-.2.8q-.1.4.3.4.3 0 .4-.6m1.6.6-.6-1.8c-.6-1.8-1.2-3-1-2 .4 1.5 1.2 3.8 1.4 3.8zM275.5-2a17 17 0 0 1 2.7-2.6c3.2-2.7 7.5-6.9 7.5-7.3q.2-1.4-4 2.6L277-5q-2.5 1.7-2.3 3 0 1.1.9 0m5.3-2.5c6.2-5.7 7.4-6.9 7.2-7.2q-.7-.8-1.8.6a60 60 0 0 1-6.7 6c-2 1.4-3.9 3.2-3.7 3.5q.1.2 1 .1c.7 0 1.5-.7 4-3m1.3 2 2.3-2.5 1.6-1.8-.7-.2q-.6-.1-3.6 2.6l-2.9 2.8 1.3.2c1.2 0 1.3 0 2-1m3.6-1c1-1 1.8-2.1 1.8-2.2q0-.4-.5-.4-.5-.3-1.3.7t-1.1.8q-.3-.1-.1.1c.2.3-.8 1.2-1 1q-.3-.2-.1 0 0 .4-.5 1-1.2 1 .1 1c.6 0 1.2-.4 2.7-2m2.2.7q1.5-1.7.2-1.6c-.4 0-3.2 2.4-3.2 2.8h1c.9 0 1.1 0 2-1.2m1.5.7 1.2-1.6q.9-.9.7-1l-.6-.1c-.3 0-2.6 2.7-2.6 3 0 .5 1 .3 1.3-.3m2.7-.6q1.3-1.3.6-1.4-.4-.2-1.5 1l-1 1.3c0 .7 1 .2 2-1m2 .3c.8-1.3.9-1.4.4-1.4s-2.3 1.7-2.3 2.2l.6.2q.6 0 1.3-1M282-10.3c1.6-1.6 1.7-1.7 1-1.7q-.7 0-1.1.7-.9 1.5-4.1 4-2.8 1.9-2.7 2.6c0 .5 4.8-3.4 6.9-5.6m7.2 5.8q.5 0 .5-.4c0-.3-1.2-.5-1.6-.2q-.5.4.1.5l.6.3zm5.2-.7q.2-1.3-1-.1c-1.1 1.2-.7 1 .2 1q.7 0 .8-.9m-19.7-1c-.2-.1-.6.6-.6 1q0 .4.3-.2zm18.2.3q1.3-1.4.4-1.3c-.3 0-2 1.5-2 1.9 0 .5 1 .1 1.6-.6m-1.3-1c1.3-1.3 1.3-1.4 1-1.8s-.6-.4-2 1q-2.3 2.2-.9 2 .6 0 2-1.3m-1.9-1c1.5-1.4 1.7-1.7 1.4-2q-.2-.4-.5-.4l-1.8 2c-1.4 1.4-1.7 1.8-1.3 2l.4.2zm-11.5-.5c2-1.6 3.2-2.9 3-3-.3-.4-4.9 3.5-4.9 4.2 0 .3.3.1 1.9-1.2m8.8.9.3-.5q-.3 0-.8.5l-.2.5q.4 0 .7-.5m.2-1q1.7-1 2.2-1.7c.5-.5.5-.5 0-.9-.4-.3-.5-.3-1.2.5l-2.1 2.2c-1.8 1.5-1 1.5 1.1 0M335-9.7q-.4-.3-.4 0 .2.6.5.5.1-.2-.1-.5m-7.2-4.2-.4-.2q-.4 0-.3.2t.4.3q.4 0 .3-.3m-7.6-6.2h-.8q-.4 0 .3.1.9.1.5-.1m1.4-9.4c-.5-.3-1.6-.3-1.4 0q.2.3.7.3.6 0 .7.5.2.6.3 0t-.3-.8" style="fill:#000" transform="translate(-262 30.9)"/></svg>